<svg width="578" height="383" viewBox="0 0 578 383" fill="none" xmlns="http://www.w3.org/2000/svg">
<path d="M438.389 224.58C427.795 216.797 388.378 202.779 369.994 196.743H349.345C337.091 199.957 309.559 207.681 297.467 212.867C285.376 218.052 263.332 248.757 254.481 263.017L264.111 282.524C288.621 308.105 268.873 330.691 255.801 339.045C275.409 339.045 283.851 331.267 285.621 327.378C283.66 339.131 282.081 367.997 281.536 380.96H425.733V357.4H480.731C485.799 298.738 451.631 234.308 438.389 224.58Z" fill="url(#paint0_linear)"/>
<ellipse rx="24.5523" ry="18.5082" transform="matrix(-1 0 0 1 358.113 215.251)" fill="#00886C"/>
<path d="M376.34 213.341C373.154 193.957 374.276 176.02 374.774 169.83C374.077 164.036 345.095 174.888 331.152 180.683C339.02 184.897 341.152 205.966 341.235 215.975C340.986 219.267 342.928 226.246 352.688 227.826C369.021 229.828 375.261 219.003 376.34 213.341Z" fill="url(#paint1_linear)"/>
<mask id="mask0" mask-type="alpha" maskUnits="userSpaceOnUse" x="331" y="168" width="46" height="61">
<path d="M376.34 213.341C373.154 193.957 374.276 176.02 374.774 169.83C374.077 164.036 345.095 174.888 331.152 180.683C339.02 184.897 341.152 205.966 341.235 215.975C340.986 219.267 342.928 226.246 352.688 227.826C369.021 229.828 375.261 219.003 376.34 213.341Z" fill="#BABABA"/>
</mask>
<g mask="url(#mask0)">
<path opacity="0.1" d="M335.976 200.793C355.604 197.554 370.156 179.3 374.978 170.578C363.775 168.133 338.586 164.71 327.45 170.578C316.314 176.445 328.494 193.166 335.976 200.793Z" fill="black"/>
</g>
<path d="M341.956 184.231C309.718 182.748 308.797 136.112 312.366 112.979C370.611 60.7552 393.998 101.79 398.41 128.836C393.024 147.919 374.193 185.714 341.956 184.231Z" fill="url(#paint2_linear)"/>
<path d="M383.568 66.3655C392.842 63.2729 412.177 61.7266 415.323 80.2822C415.323 92.2793 387.953 89.24 383.568 66.3655Z" fill="#30235B"/>
<path d="M372.401 127.988L359.265 139.922L360.691 146.883L372.942 135.508L372.401 127.988Z" fill="#111111"/>
<path d="M385.757 138.721C374.544 148.77 373.817 164.462 374.855 171.052C378.489 170.023 388.638 163.35 400.163 144.899C418.54 105.196 396.399 75.5004 383.032 65.6158C347.212 43.5812 299.324 77.7656 307.694 103.919C316.065 130.072 356.102 124.031 370.962 114.009C367.848 123.894 370.703 133.641 372.519 137.28C379.528 119.981 399.773 126.159 385.757 138.721Z" fill="#30235B"/>
<path d="M361.753 60.5125C337.901 53.2651 323.374 66.3284 319.092 73.766C323.903 71.0258 337.235 67.1896 352.079 73.766C375.551 85.174 380.679 109.5 380.309 120.237L395.851 119.063V113.023C394.423 98.5393 385.606 67.76 361.753 60.5125Z" fill="white"/>
<ellipse rx="18.2424" ry="23.6088" transform="matrix(-1 0 0 1 389.486 134.958)" fill="white"/>
<ellipse rx="18.2424" ry="23.6088" transform="matrix(-1 0 0 1 389.486 134.958)" fill="white"/>
<ellipse rx="8.70764" ry="11.2692" transform="matrix(-1 0 0 1 389.485 134.958)" fill="#24C28A"/>
<path opacity="0.5" d="M309.778 131.355C316.539 129.144 323.822 133.857 326.618 136.49C331.702 141.625 323.993 154.682 315.08 148.667C307.949 143.856 308.574 135.121 309.778 131.355Z" fill="#E6FCFF"/>
<path fill-rule="evenodd" clip-rule="evenodd" d="M329.483 134.94C319.704 125.383 310.429 127.017 307.014 129.029C305.038 134.564 307.014 150.74 317.921 152.174C326.646 153.321 329.637 146.185 330.041 142.473C331.7 141.056 332.802 142.277 333.145 143.065C332.858 153.38 340.697 160.358 349.11 158.74C355.84 157.446 358.77 150.331 359.394 146.936H360.785V140.901C352.021 131.823 339.914 134.048 334.955 136.295C333.651 135.211 330.764 134.94 329.483 134.94ZM310.292 132.003C317.053 129.792 323.231 133.581 326.027 136.213C331.111 141.348 324.434 153.929 315.104 148.668C309.517 145.518 309.088 135.769 310.292 132.003ZM348.526 138.734C344.833 137.463 337.305 136.613 336.728 143.38C336.007 151.838 343.282 158.079 349.64 154.751C354.243 152.341 356.129 147.401 356.129 144.281C356.129 141.785 351.06 139.543 348.526 138.734Z" fill="#111111"/>
<path opacity="0.5" d="M336.703 143.38C337.279 136.613 344.808 137.463 348.5 138.734C351.035 139.543 356.104 141.785 356.104 144.281C356.104 147.401 354.218 152.341 349.615 154.751C343.257 158.079 335.982 151.838 336.703 143.38Z" fill="#E6FCFF"/>
<path d="M480.777 357.476C475.106 384.212 441.428 384.266 425.298 380.952L300.964 361.949C299.361 363.422 295.523 367.304 292.992 371.056C290.461 374.807 288.141 372.17 287.298 370.382C283.653 374.559 280.971 372.571 280.085 371.056C276.947 375.235 274.306 373.776 273.378 372.524C269.026 375.951 267.927 372.973 267.922 371.056C273.86 357.753 284.514 344.42 289.098 339.416L320.099 342.419L420.828 331.555C439.938 317.372 487.867 324.056 480.777 357.476Z" fill="url(#paint3_linear)"/>
<path d="M239.873 317.024C245.49 336.21 253.232 339.562 256.401 338.84C289.759 315.228 275.435 291.032 264.103 281.886L234.567 217.555C238.843 214.017 243.608 202.95 243.119 195.971C242.728 190.388 239.128 190.201 237.377 190.806C236.888 185.02 232.938 185.205 231.024 186.02C229.362 179.713 224.549 181.066 222.349 182.53C222.056 173.845 216.363 175.034 213.553 176.715L208.621 190.806C206.605 191.102 201.931 191.786 199.357 192.158C196.139 192.622 192.044 193.241 194.091 198.037C195.73 201.875 204.038 215.006 207.987 221.092C216.275 245.075 234.257 297.837 239.873 317.024Z" fill="url(#paint4_linear)"/>
<path d="M324.897 374.058H259.854C259.854 377.87 262.944 380.96 266.756 380.96H317.994C321.807 380.96 324.897 377.87 324.897 374.058Z" fill="#B4B4B4"/>
<path d="M239.138 289.165C238.671 287.981 237.528 287.203 236.256 287.203H126.724C124.54 287.203 123.042 289.403 123.843 291.436L158.351 378.999C158.817 380.182 159.96 380.96 161.232 380.96H270.765C272.949 380.96 274.447 378.76 273.646 376.728L239.138 289.165Z" fill="url(#paint5_linear)"/>
<path d="M420.79 331.523L417.873 307.233" stroke="#204766" stroke-width="0.619401"/>
<path d="M285.71 327.521C286.147 324.67 286.891 317.779 286.366 313.024" stroke="#204766" stroke-width="0.619401"/>
<path d="M286.502 318.342L289.012 312.963" stroke="#204766" stroke-width="0.619401"/>
<path d="M287.39 370.16L295.537 359.282" stroke="#204766" stroke-width="0.619401"/>
<path d="M280.179 370.698L292.894 353.242" stroke="#204766" stroke-width="0.619401"/>
<path d="M273.494 372.297L289.299 348.209" stroke="#204766" stroke-width="0.619401"/>
<path d="M237.381 190.91C236.946 193.306 235.525 198.968 233.327 202.457" stroke="#204766" stroke-width="0.619401"/>
<path d="M222.322 182.581C221.656 185.053 219.923 190.628 218.316 193.153" stroke="#204766" stroke-width="0.619401"/>
<path d="M231.112 186.173C230.328 188.864 228.38 194.78 226.866 196.916" stroke="#204766" stroke-width="0.619401"/>
<path d="M208.683 190.797L206.259 198.299" stroke="#204766" stroke-width="0.619401"/>
<ellipse rx="7.48252" ry="11.3109" transform="matrix(-0.933872 0.357607 0.323765 0.946138 194.756 336.314)" fill="white"/>
<rect width="124.976" height="9.91049" transform="matrix(0.439584 0.898201 0.877081 -0.480343 2.70654 260.895)" fill="#E0E0E0"/>
<rect width="55.2475" height="15.6235" rx="3.09701" transform="matrix(-1 0 0 1 87.127 365.337)" fill="#30235B"/>
<rect width="65.7585" height="10.1219" transform="matrix(0.74513 -0.666919 -0.624614 -0.780934 9.0293 261.909)" fill="#E0E0E0"/>
<rect width="19.0429" height="3.5487" transform="matrix(0.946456 0.322832 0.291569 -0.95655 56.9849 213.544)" fill="#E0E0E0"/>
<ellipse rx="6.83786" ry="7.23339" transform="matrix(-1 0 0 1 6.83792 257.74)" fill="#30235B"/>
<path d="M61.2609 208.317L51.6813 210.198L58.0112 218.034L61.2609 208.317Z" fill="#30235B"/>
<path d="M90.9375 204.516C88.8192 198.887 82.609 196.216 77.0665 198.551C71.524 200.885 68.7481 207.34 70.8663 212.968L77.1274 229.605L97.1986 221.152L90.9375 204.516Z" fill="#30235B"/>
<path d="M84.7329 221.48C107.008 212.229 121.828 232.956 127.061 243.932C111.596 267.258 83.2647 269.653 70.4249 268.478C65.9131 256.667 62.4582 230.732 84.7329 221.48Z" fill="#30235B"/>
<path d="M535.058 309.332C549.391 318.612 553.901 310.149 554.365 304.757C554.365 296.915 554.365 290.379 564.095 278.779C587.571 251.33 580.158 207.543 547.723 204.766C515.289 201.988 524.71 223.718 536.139 237.769C547.546 251.793 540.338 256.052 523.267 266.138L523.165 266.198C500.925 280.413 519.459 293.157 530.425 295.444C541.391 297.732 531.969 304.757 535.058 309.332Z" fill="url(#paint6_linear)"/>
<path d="M393.169 157.374C398.247 156.246 408.322 149.199 407.413 133.009" stroke="#204766" stroke-width="0.949425"/>
<path d="M321.616 70.5478C324.381 66.2061 330.914 59.789 344.082 59.1309" stroke="#204766" stroke-width="0.949425"/>
<path d="M502.549 348.39C501.342 333.766 514.052 330.194 521.913 330.161C522.923 330.157 523.778 330.858 524.056 331.829C524.502 333.386 523.302 334.935 521.688 335.071C514.769 335.653 505.553 338.795 507.267 348.39C508.92 357.651 516.438 359.486 521.861 359.144C523.454 359.044 524.958 360.224 524.958 361.819C524.958 362.989 524.137 364.008 522.974 364.133C515.633 364.922 503.732 362.727 502.549 348.39Z" fill="url(#paint7_linear)"/>
<path d="M522.686 324.985V377.863C522.686 379.574 524.073 380.96 525.783 380.96H564.909C566.62 380.96 568.006 379.574 568.006 377.863L568.006 324.985C568.006 323.274 566.62 321.888 564.909 321.888H525.783C524.073 321.888 522.686 323.274 522.686 324.985Z" fill="url(#paint8_linear)"/>
<path d="M264.143 281.829L255.076 262.162" stroke="#204766" stroke-width="0.949425"/>
<path d="M339.909 340.173C342.923 350.934 341.165 363.089 339.909 367.822L331.529 366.565C333.276 352.464 332.257 343.747 331.529 341.152L339.909 340.173Z" fill="#263B4A"/>
<rect width="15.8603" height="4.34444" rx="2.17222" transform="matrix(-0.993841 0.110813 0.0991487 0.995073 343.229 335.564)" fill="url(#paint9_linear)"/>
<rect opacity="0.5" x="-0.949425" y="0.949425" width="69.7494" height="57.2037" rx="2.54344" transform="matrix(-1 0 0 1 271.595 0.117188)" stroke="#F0F0F0" stroke-width="1.89885"/>
<rect opacity="0.5" x="-0.949425" y="0.949425" width="94.4117" height="77.5477" rx="3.7977" transform="matrix(-1 0 0 1 561.835 0)" stroke="#F0F0F0" stroke-width="1.89885"/>
<rect opacity="0.5" x="-0.949425" y="0.949425" width="94.4117" height="77.5477" rx="3.7977" transform="matrix(-1 0 0 1 526.23 118.891)" stroke="#F0F0F0" stroke-width="1.89885"/>
<rect opacity="0.5" x="-0.949425" y="0.949425" width="104.847" height="80.4669" rx="3.7977" transform="matrix(-1 0 0 1 163.713 66.0547)" stroke="#F7F7F7" stroke-width="1.89885"/>
<g opacity="0.6">
<path d="M471.358 168.278V172.545L453.817 163.537V159.744L471.358 150.735V155.003L459.032 161.64L471.358 168.278Z" fill="#EA545E"/>
<path d="M472.781 174.442L482.736 147.891H486.055L476.099 174.442H472.781Z" fill="#EA545E"/>
<path d="M487.475 155.003V150.735L505.016 159.744V163.537L487.475 172.545V168.278L499.801 161.64L487.475 155.003Z" fill="#EA545E"/>
</g>
<g opacity="0.3">
<path d="M84.0477 108.583V117.37H79.8174V95.8906H84.0477V104.352H87.9525V95.8906H92.1828V117.045H87.9525V108.258H84.0477V108.583Z" fill="#2FB7E9"/>
<path d="M99.0149 99.796H94.7847V95.8906H107.15V99.796H102.92V117.045H99.0149V99.796Z" fill="#2FB7E9"/>
<path d="M128.627 95.8906V117.045H124.397V103.05L121.468 117.045H116.262L113.333 103.05V117.045H109.103V95.8906H114.96L118.865 113.139L122.77 95.8906H128.627Z" fill="#2FB7E9"/>
<path d="M132.861 117.045V95.8906H137.091V113.139H142.948V117.045H132.861Z" fill="#2FB7E9"/>
</g>
<g opacity="0.3">
<path d="M220.817 31.3393V27.1254C221.79 27.1254 222.762 26.8013 223.086 26.4771C223.734 26.153 224.058 25.5047 224.382 24.8564C224.707 24.2081 224.707 22.5874 224.707 20.6425C224.707 18.3735 224.707 16.7528 225.031 15.7804C225.355 14.8079 225.679 14.1596 226.003 13.8355C226.327 13.1872 227.299 12.8631 228.272 12.5389C229.244 12.2148 230.54 11.8906 232.161 11.8906H233.133V16.1045C231.837 16.1045 230.864 16.1045 230.54 16.4286C230.216 16.4286 229.892 16.7528 229.568 17.0769C229.244 17.4011 229.244 18.0494 229.244 18.6977C229.244 20.3184 229.244 21.9391 228.92 23.884C228.92 25.1805 228.596 26.153 227.948 27.1254C227.623 27.7737 226.651 28.422 225.679 29.0703C226.651 29.7185 227.299 30.3668 227.948 31.0151C228.596 31.6634 228.92 32.6358 228.92 33.9324C228.92 34.5807 229.244 36.2014 229.244 39.1187C229.244 40.0912 229.244 40.7395 229.568 41.0636C229.892 41.3877 229.892 41.7119 230.54 42.036C230.864 42.3602 231.837 42.3602 233.133 42.3602V46.574H232.161C230.54 46.574 229.244 46.574 228.272 46.2499C227.299 45.9258 226.651 45.6016 226.327 44.9533C225.679 44.305 225.355 43.6567 225.031 43.0085C224.707 42.036 224.707 40.7395 224.707 38.7946C224.707 36.5256 224.707 34.9049 224.382 34.2566C224.058 33.6083 223.734 32.96 223.086 32.3117C222.438 31.6634 221.79 31.3393 220.817 31.3393Z" fill="#EF7543"/>
<path d="M256.144 26.8013V31.0151C255.172 31.0151 254.199 31.3393 253.875 31.6634C253.227 31.9876 252.903 32.6359 252.579 33.2841C252.255 33.9324 252.255 35.5531 252.255 37.498C252.255 39.767 252.255 41.3877 251.931 42.3602C251.606 43.3326 251.282 43.9809 250.958 44.6292C250.634 45.2775 249.662 45.6016 248.69 45.9258C247.717 46.2499 246.421 46.574 244.8 46.574H243.504V42.3602C244.8 42.3602 245.773 42.3602 246.097 42.036C246.421 42.036 246.745 41.7119 247.069 41.3877C247.393 41.0636 247.393 40.4153 247.393 39.767C247.393 38.1463 247.393 36.5256 247.717 34.5807C247.717 33.2841 248.041 32.3117 248.69 31.3393C249.014 30.691 249.986 30.0427 250.958 29.3944C249.986 28.7461 249.338 28.0978 249.014 27.4495C248.365 26.8013 248.041 25.8288 248.041 24.5322C248.041 23.884 248.041 22.2632 247.717 19.3459C247.717 18.3735 247.717 17.7252 247.393 17.4011C247.393 17.0769 247.069 16.7528 246.421 16.4286C246.097 16.1045 245.124 16.1045 243.828 16.1045V11.8906H244.8C246.421 11.8906 247.717 11.8906 248.69 12.2148C249.662 12.5389 250.31 12.8631 250.634 13.5113C251.282 14.1596 251.606 14.8079 251.931 15.4562C252.255 16.4286 252.255 17.7252 252.255 19.6701C252.255 21.9391 252.255 23.5598 252.579 24.2081C252.903 24.8564 253.227 25.5047 253.875 26.153C254.199 26.4771 254.847 26.8013 256.144 26.8013Z" fill="#EF7543"/>
</g>
<g opacity="0.4">
<path d="M488.817 25.8906H500.737C501.62 25.8906 502.945 26.3322 503.386 26.7737C504.269 27.6568 504.711 28.5399 504.711 29.8645V36.9292C504.711 39.137 503.828 40.9031 502.503 41.7862C501.179 43.1109 498.972 43.5524 496.764 43.5524H494.115V53.2664H488.817V25.8906ZM494.115 31.1892V38.6954H496.764C498.53 38.6954 499.413 38.2539 499.413 36.9292V31.1892H494.115Z" fill="#02BF97"/>
<path d="M513.983 42.2278V53.2664H508.686V25.8906H513.983V36.9292H519.281V25.8906H524.579V53.2664H519.281V42.2278H513.983Z" fill="#02BF97"/>
<path d="M530.32 25.8906H542.24C543.123 25.8906 544.447 26.3322 544.889 26.7737C545.772 27.6568 546.213 28.5399 546.213 29.423V36.4877C546.213 38.6954 545.33 40.4616 544.006 41.3447C542.681 42.6693 540.474 43.1109 538.267 43.1109H535.618V52.8249H530.32V25.8906ZM535.618 31.1892V38.6954H538.267C540.032 38.6954 540.915 38.2539 540.915 36.9292V31.1892H535.618Z" fill="#02BF97"/>
</g>
<defs>
<linearGradient id="paint0_linear" x1="356.139" y1="166.454" x2="369.252" y2="414.718" gradientUnits="userSpaceOnUse">
<stop stop-color="#04D7AB"/>
<stop offset="1" stop-color="#009878"/>
</linearGradient>
<linearGradient id="paint1_linear" x1="356.265" y1="99.2348" x2="358.611" y2="209.53" gradientUnits="userSpaceOnUse">
<stop stop-color="#FFEFE0"/>
<stop offset="1" stop-color="#FFBE99"/>
</linearGradient>
<linearGradient id="paint2_linear" x1="354.676" y1="87.8184" x2="354.676" y2="184.274" gradientUnits="userSpaceOnUse">
<stop stop-color="#FFEFE0"/>
<stop offset="1" stop-color="#FFBE99"/>
</linearGradient>
<linearGradient id="paint3_linear" x1="374.704" y1="288.526" x2="374.704" y2="372.392" gradientUnits="userSpaceOnUse">
<stop offset="0.0677966" stop-color="#FFEFE0"/>
<stop offset="1" stop-color="#FFBE99"/>
</linearGradient>
<linearGradient id="paint4_linear" x1="264.21" y1="165.437" x2="182.235" y2="256.129" gradientUnits="userSpaceOnUse">
<stop stop-color="#FFEFE0"/>
<stop offset="1" stop-color="#FFBE99"/>
</linearGradient>
<linearGradient id="paint5_linear" x1="167.123" y1="216.838" x2="215.095" y2="404.953" gradientUnits="userSpaceOnUse">
<stop offset="0.0171777" stop-color="white"/>
<stop offset="1" stop-color="#D7D7D7"/>
</linearGradient>
<linearGradient id="paint6_linear" x1="599.985" y1="321.279" x2="506.608" y2="209.635" gradientUnits="userSpaceOnUse">
<stop stop-color="#ECECEC"/>
<stop offset="1" stop-color="#F5F5F5" stop-opacity="0"/>
</linearGradient>
<linearGradient id="paint7_linear" x1="494.863" y1="337.313" x2="524.96" y2="337.938" gradientUnits="userSpaceOnUse">
<stop stop-color="white"/>
<stop offset="1" stop-color="#CCCCCC"/>
</linearGradient>
<linearGradient id="paint8_linear" x1="545.346" y1="304.055" x2="545.346" y2="399.279" gradientUnits="userSpaceOnUse">
<stop stop-color="white"/>
<stop offset="1" stop-color="#CCCCCC"/>
</linearGradient>
<linearGradient id="paint9_linear" x1="7.62866" y1="-0.849544" x2="7.51098" y2="4.41518" gradientUnits="userSpaceOnUse">
<stop stop-color="#406185"/>
<stop offset="1" stop-color="#263B4A"/>
</linearGradient>
</defs>
</svg>
